<svg xmlns="http://www.w3.org/2000/svg" xmlns:xlink="http://www.w3.org/1999/xlink" width="1366" zoomAndPan="magnify" viewBox="0 0 1024.5 576" height="768" preserveAspectRatio="xMidYMid meet" version="1.0"><defs><clipPath id="fc1bf3b15e"><path d="M 656.507812 113.546875 L 859.449219 113.546875 L 859.449219 575.847656 L 656.507812 575.847656 Z M 656.507812 113.546875 " clip-rule="nonzero"/></clipPath><clipPath id="9f0e577b93"><path d="M 769.128906 191.3125 L 878.027344 191.3125 L 878.027344 358.273438 L 769.128906 358.273438 Z M 769.128906 191.3125 " clip-rule="nonzero"/></clipPath><clipPath id="225d1d87f8"><path d="M 402.789062 111 L 642.453125 111 L 642.453125 575.847656 L 402.789062 575.847656 Z M 402.789062 111 " clip-rule="nonzero"/></clipPath><clipPath id="b3b282d759"><path d="M 145.691406 110.363281 L 384.421875 110.363281 L 384.421875 575.847656 L 145.691406 575.847656 Z M 145.691406 110.363281 " clip-rule="nonzero"/></clipPath></defs><g clip-path="url(#fc1bf3b15e)"><path fill="#70cbff" d="M 767.648438 200.257812 C 767.648438 200.257812 768.207031 196.632812 767.023438 195.257812 C 765.835938 193.882812 761.347656 188.664062 760.921875 186.648438 C 760.496094 184.628906 759.160156 182.824219 757.996094 182.460938 C 756.832031 182.097656 750.378906 182.417969 750.421875 177.207031 C 750.464844 172 749.449219 164.398438 748.976562 162.285156 C 748.496094 160.175781 748.714844 156.601562 749.835938 154.410156 C 750.949219 152.21875 752.027344 150.558594 751.273438 148.933594 C 750.511719 147.308594 750.394531 146.105469 751.183594 144.5 C 751.972656 142.890625 753.753906 140.109375 753.421875 138.089844 C 753.09375 136.074219 752.910156 136.558594 752.910156 136.558594 C 752.910156 136.558594 747.398438 135.652344 746.441406 133.691406 C 746.441406 133.691406 747.226562 134.355469 748.277344 133.996094 C 749.335938 133.636719 746.136719 130.324219 746.359375 129.402344 C 746.582031 128.480469 746.339844 129.210938 746.339844 129.210938 C 746.339844 129.210938 748.308594 130.621094 748.734375 130.128906 C 749.160156 129.640625 748.421875 126.421875 749.304688 124.667969 C 750.183594 122.914062 750.3125 124.359375 752.253906 122.585938 C 754.195312 120.8125 753.351562 122.082031 756.011719 120.148438 C 758.679688 118.21875 768.121094 112.875 778.601562 113.632812 C 789.082031 114.394531 800.820312 120.578125 802.617188 123.683594 C 804.410156 126.78125 806.160156 134.851562 804.464844 139.269531 C 802.761719 143.691406 801.015625 150.523438 800.519531 152.316406 C 800.023438 154.109375 799.164062 159.480469 798.578125 161.566406 C 797.992188 163.648438 796.261719 166.625 795.300781 168.910156 C 794.332031 171.195312 792.164062 176.492188 792.15625 178.613281 C 792.152344 180.738281 792.535156 182.996094 793.457031 183.460938 C 794.382812 183.925781 794.007812 184.460938 794.441406 184.453125 C 794.875 184.445312 795.410156 184.484375 795.804688 184.957031 C 796.199219 185.433594 795.882812 186.597656 797.394531 187.578125 C 798.910156 188.5625 798.820312 188.902344 800.589844 190.554688 C 802.355469 192.207031 802.640625 191.867188 802.8125 193.40625 C 802.984375 194.945312 803.289062 195.613281 804.078125 196.417969 C 804.867188 197.222656 806.101562 198.984375 807.050781 200.507812 C 807.996094 202.03125 816.488281 214.855469 818.625 225.484375 C 820.761719 236.117188 824.21875 255.339844 823.476562 266.539062 C 822.726562 277.742188 820.035156 298.046875 821 308.058594 C 821.96875 318.070312 826.332031 334.378906 826.503906 343.054688 C 826.671875 351.730469 827.296875 354.226562 825.578125 355.226562 C 823.863281 356.222656 821.71875 358.195312 821.65625 358.515625 C 821.601562 358.839844 820.402344 366.769531 817.953125 373.054688 C 815.503906 379.335938 813.117188 382.277344 813.339844 383.625 C 813.558594 384.96875 814.992188 399.214844 815.082031 403.972656 C 815.175781 408.726562 815.988281 414.238281 816.167969 420.152344 C 816.347656 426.0625 815.335938 426.917969 816.265625 428.378906 C 817.191406 429.839844 817.609375 431.632812 817.964844 433.363281 C 818.320312 435.089844 818.804688 436.558594 818.484375 436.628906 C 818.164062 436.699219 817.914062 437.21875 817.914062 437.21875 C 817.914062 437.21875 818.964844 441.636719 819.335938 444.394531 C 819.714844 447.152344 820.003906 448.882812 822.984375 453.195312 C 825.960938 457.507812 833.726562 470.023438 835.597656 480.46875 C 837.472656 490.910156 840.59375 505.894531 841.332031 510.769531 C 842.066406 515.640625 845.164062 529.46875 847.804688 536.230469 C 850.441406 542.996094 851.558594 547.539062 853.152344 550.207031 C 854.75 552.878906 854.433594 553.140625 855.269531 553.125 C 856.105469 553.109375 857.03125 554.503906 857.566406 555.652344 C 858.105469 556.800781 860.054688 564.605469 859.164062 568.285156 C 858.273438 571.96875 858.277344 575.699219 847.140625 574.886719 C 836 574.074219 821.566406 572.359375 811.503906 573.777344 C 801.433594 575.195312 784.492188 573.660156 782.515625 571.125 C 780.539062 568.59375 780.769531 563.957031 786.472656 563.074219 C 792.179688 562.191406 796.433594 562.816406 798.039062 562.53125 C 799.636719 562.242188 806.222656 560.121094 808.367188 558.214844 C 810.515625 556.308594 813.441406 554.578125 814.640625 553.398438 C 815.839844 552.21875 815.109375 551.140625 813.667969 552.839844 C 812.222656 554.539062 808.097656 557.382812 807.523438 557.714844 C 806.953125 558.050781 805.191406 560.140625 804.964844 558.34375 C 804.734375 556.546875 802.894531 557.742188 806.269531 556.003906 C 809.644531 554.269531 813.488281 550.269531 814.515625 550.25 C 815.542969 550.230469 816.847656 551.171875 817.863281 550.570312 C 818.882812 549.972656 822.722656 549.0625 822.777344 548.742188 C 822.839844 548.417969 821.53125 547.15625 822.296875 547.078125 C 823.066406 547 823.582031 546.925781 823.828125 546.597656 C 824.078125 546.273438 825.21875 545.222656 825.46875 544.894531 C 825.71875 544.566406 826.566406 541.660156 825.996094 538.839844 C 825.425781 536.023438 820.828125 517.851562 815.453125 505.871094 C 810.078125 493.886719 805.367188 483.113281 802.929688 476.667969 C 800.488281 470.21875 799.773438 466.503906 795.695312 461.695312 C 791.613281 456.890625 790.796875 454.71875 789.28125 452.691406 C 787.765625 450.664062 786.519531 446.316406 786.40625 443.683594 C 786.292969 441.046875 786.292969 441.046875 786.292969 441.046875 C 786.292969 441.046875 786.859375 440.394531 782.445312 441.636719 C 778.03125 442.878906 782.1875 441.578125 782.1875 441.578125 C 782.1875 441.578125 780.710938 441.671875 781.320312 439.859375 C 781.921875 438.046875 781.394531 437.09375 781.019531 437.871094 C 780.652344 438.652344 778.777344 441.453125 777.816406 441.664062 C 776.855469 441.875 772.714844 440.605469 772.714844 440.605469 C 772.714844 440.605469 771.703125 444.804688 770.222656 447.855469 C 768.738281 450.90625 767.90625 454.585938 767.28125 461.992188 C 766.65625 469.398438 765.769531 483.496094 758.648438 497.585938 C 751.53125 511.675781 744.222656 526.089844 740.65625 531.304688 C 737.09375 536.515625 735.515625 541.242188 734.144531 546.859375 C 732.777344 552.480469 732.882812 554.601562 733.464844 554.910156 C 734.050781 555.222656 734.582031 556.046875 734.355469 557.65625 C 734.132812 559.269531 733.738281 561.785156 733.25 563.53125 C 732.769531 565.273438 734.015625 576.632812 726.867188 575.804688 C 719.710938 574.980469 711.203125 573.859375 708.363281 573.207031 C 705.515625 572.554688 679.144531 568.503906 671.859375 564.078125 C 664.570312 559.65625 655.714844 553.71875 656.757812 551.257812 C 657.804688 548.792969 659.222656 545.808594 666 547.089844 C 672.773438 548.375 682.167969 548.640625 684.28125 548.152344 C 686.390625 547.660156 690.015625 545.660156 691.164062 545.125 C 692.3125 544.585938 691.765625 542.925781 690.421875 543.53125 C 689.085938 544.136719 682.710938 546.894531 684.230469 545.707031 C 685.75 544.519531 690.140625 541.992188 692.128906 541.890625 C 694.121094 541.789062 695.167969 542.796875 696.835938 542.503906 C 698.5 542.214844 701.523438 542.414062 702.984375 541.421875 C 704.441406 540.429688 706.152344 538.980469 706.734375 539.164062 C 707.320312 539.34375 706.878906 539.996094 708.226562 539.648438 C 709.566406 539.300781 712.683594 537.441406 716.484375 531.257812 C 720.285156 525.078125 726.199219 511.847656 728.304688 501.003906 C 730.410156 490.160156 735.828125 474.625 737.148438 469.714844 C 738.464844 464.800781 740.136719 457.953125 738.964844 454.054688 C 737.800781 450.15625 736.097656 445.496094 737.625 441.15625 C 739.144531 436.820312 741.464844 433.625 741.464844 433.625 C 741.464844 433.625 739.863281 434.105469 740.925781 432.351562 C 741.980469 430.59375 744.292969 423.859375 744.464844 422.636719 C 744.632812 421.414062 744.421875 420.453125 744.851562 419.480469 C 745.285156 418.507812 746.339844 416.621094 746.324219 415.851562 C 746.308594 415.078125 745.617188 412.457031 746.242188 411.351562 C 746.859375 410.246094 747.71875 407.980469 747.878906 406.496094 C 748.046875 405.015625 748.894531 402.621094 748.550781 401.277344 C 748.203125 399.933594 750.382812 396.355469 749.949219 393.789062 C 749.515625 391.226562 748.636719 389.25 748.535156 387.453125 C 748.441406 385.65625 749.0625 378.054688 748.894531 376.066406 C 748.730469 374.078125 750.011719 367.238281 750.339844 364.207031 C 750.667969 361.179688 751.585938 359.105469 752.191406 357.097656 C 752.796875 355.09375 755.953125 352.140625 754.917969 351.710938 C 753.878906 351.28125 750.898438 349.988281 751.910156 349.195312 C 752.921875 348.40625 753.703125 349.097656 753.90625 346.199219 C 754.113281 343.304688 754.398438 341.5 754.546875 335.964844 C 754.699219 330.433594 754.765625 327.28125 755.457031 323.21875 C 756.148438 319.152344 757.964844 299.957031 759.394531 294.082031 C 760.820312 288.203125 759.042969 269.398438 759.160156 265.539062 C 759.277344 261.679688 759.886719 250.15625 759.128906 247.34375 C 758.367188 244.53125 756.113281 231.199219 758.855469 223.238281 C 761.59375 215.277344 763.015625 205.992188 764.835938 203.640625 C 766.65625 201.292969 767.648438 200.257812 767.648438 200.257812 " fill-opacity="1" fill-rule="nonzero"/></g><g clip-path="url(#9f0e577b93)"><path fill="#70cbff" d="M 769.15625 230.691406 C 769.164062 231.203125 769.871094 234.339844 770.988281 235.667969 C 772.109375 236.996094 773.535156 237.546875 773.855469 237.605469 C 774.175781 237.664062 781.976562 255.320312 786.472656 264.878906 C 790.964844 274.4375 792.972656 278.449219 794.101562 280.355469 C 795.234375 282.261719 796.351562 283.71875 796.351562 283.71875 L 796.6875 281.011719 C 796.6875 281.011719 795.878906 279.226562 794.417969 276.8125 C 792.957031 274.398438 792.03125 269.914062 791.300781 268.578125 C 790.566406 267.242188 790.015625 265.261719 789.53125 263.40625 C 789.042969 261.550781 788.804688 259.242188 788.503906 256.933594 C 788.203125 254.621094 785.808594 250.554688 784.476562 248.136719 C 783.144531 245.71875 776.617188 234.207031 775.808594 232.167969 C 775 230.125 774.449219 225.25 773.464844 220.960938 C 772.484375 216.671875 774.824219 208.078125 778.703125 202.535156 C 782.582031 196.996094 789.539062 197.503906 796.105469 197.953125 C 802.671875 198.40625 809.335938 207.277344 814.566406 218.429688 C 819.800781 229.578125 819.933594 239.992188 820.316406 242.941406 C 820.695312 245.890625 817.636719 257.394531 817.417969 259.265625 C 817.199219 261.132812 817.894531 263.882812 818.222656 267.671875 C 818.554688 271.457031 818.140625 273.265625 818.042969 274.90625 C 817.945312 276.546875 818.859375 283.925781 820.222656 287.886719 C 821.585938 291.84375 816.308594 298.246094 816.308594 298.246094 C 816.308594 298.246094 816.289062 300.433594 816.5625 304.671875 C 816.839844 308.910156 819.039062 316.324219 819.039062 316.324219 L 813 303.261719 L 809.457031 309.503906 C 809.453125 309.503906 812.050781 314.144531 813.117188 315.925781 C 814.183594 317.703125 818.320312 325.726562 819.273438 328.40625 C 820.226562 331.089844 821.804688 339.480469 822.449219 342.941406 C 823.09375 346.398438 822.828125 349.363281 825.464844 352.464844 C 828.097656 355.5625 833.121094 356.171875 842.855469 357.65625 C 852.597656 359.136719 854.039062 357.308594 857.257812 357.503906 C 860.476562 357.699219 860.777344 356.597656 863.882812 357.695312 C 866.992188 358.792969 869.757812 355.589844 870.070312 355.066406 C 870.382812 354.546875 872.816406 350.773438 874.253906 348.6875 C 875.695312 346.601562 878.613281 334.84375 878.273438 330.542969 C 877.933594 326.238281 875.746094 306.480469 874.945312 304.761719 C 874.140625 303.039062 871.65625 294.410156 868.324219 288.300781 C 864.988281 282.191406 863.441406 275.214844 858.703125 269.648438 C 853.96875 264.082031 852.199219 262.703125 848.878906 260.453125 C 845.558594 258.203125 845.707031 259.164062 844.976562 258.277344 C 844.253906 257.390625 839.492188 250.476562 836.746094 248.085938 C 833.996094 245.695312 834.511719 245.492188 833.402344 244.746094 C 832.292969 243.992188 834.101562 244.34375 837.304688 243.898438 C 840.515625 243.449219 835.871094 239.617188 833.703125 237.085938 C 831.53125 234.558594 824.976562 231.40625 824.269531 231.164062 C 823.550781 230.917969 822.511719 230.230469 822.511719 230.230469 C 822.511719 230.230469 820.558594 225.640625 819.367188 220.648438 C 818.175781 215.65625 812.09375 206.839844 810.097656 203.40625 C 808.101562 199.972656 805.59375 193.207031 793.023438 191.648438 C 780.453125 190.09375 776.863281 200.386719 772.066406 208.515625 C 767.277344 216.644531 769.996094 227.585938 769.808594 227.847656 C 769.617188 228.109375 769.148438 230.175781 769.15625 230.691406 Z M 822.78125 232.15625 C 822.78125 232.15625 825.472656 233.710938 827.625 235.40625 C 829.78125 237.097656 829.148438 237.691406 830.410156 239.722656 C 831.671875 241.757812 829.328125 240.324219 826.523438 238.257812 C 823.71875 236.1875 823.644531 235.417969 823.644531 235.417969 L 822.78125 232.15625 " fill-opacity="1" fill-rule="nonzero"/></g><g clip-path="url(#225d1d87f8)"><path fill="#70cbff" d="M 522.910156 202.902344 C 522.910156 202.902344 523.332031 198.632812 521.722656 195.464844 C 520.117188 192.292969 519.105469 189.96875 518.34375 188.617188 C 517.582031 187.265625 516.355469 186.421875 516.1875 184.265625 C 516.019531 182.113281 516.355469 180.335938 513.738281 179.445312 C 511.117188 178.5625 506.425781 179.445312 504.484375 176.53125 C 502.539062 173.617188 504.355469 171.714844 503.257812 170.320312 C 502.160156 168.925781 502.03125 168.460938 502.453125 167.78125 C 502.878906 167.109375 503.214844 167.066406 502.75 166.519531 C 502.285156 165.96875 502.261719 165.671875 502.230469 164.613281 C 502.199219 163.558594 502.328125 162.207031 501.734375 162.082031 C 501.144531 161.953125 497.933594 161.234375 498.609375 159.546875 C 499.285156 157.855469 502.03125 155.40625 502.453125 152.910156 C 502.878906 150.417969 501.777344 149.445312 502.371094 146.359375 C 502.960938 143.277344 504.144531 140.277344 504.273438 138.710938 C 504.402344 137.148438 505.960938 134.613281 507.019531 133.644531 C 508.078125 132.667969 503.386719 133.472656 504.355469 136.8125 C 504.355469 136.8125 502.03125 135.078125 503.132812 132.289062 C 504.230469 129.5 504.566406 128.867188 504.402344 128.527344 C 504.230469 128.191406 501.988281 126.121094 502.496094 125.527344 C 503.003906 124.9375 502.667969 125.105469 502.582031 123.328125 C 502.496094 121.554688 502.371094 121.640625 502.707031 120.074219 C 503.046875 118.515625 505.03125 112.933594 506.722656 112.003906 C 508.414062 111.078125 508.792969 110.867188 508.453125 111.375 C 508.117188 111.878906 508.453125 112.214844 510.273438 111.753906 C 512.089844 111.289062 512.46875 111.457031 511.964844 111.792969 C 511.457031 112.132812 509.679688 113.144531 511.710938 112.976562 C 513.738281 112.808594 514.921875 112.808594 514.582031 113.1875 C 514.246094 113.570312 512.257812 114.542969 515.683594 114.203125 C 519.105469 113.867188 519.609375 113.738281 519.484375 114.035156 C 519.359375 114.332031 515.007812 115.976562 520.496094 114.628906 C 525.992188 113.273438 527.679688 112.894531 533.175781 113.652344 C 538.667969 114.414062 547.457031 119.527344 550.332031 122.699219 C 553.207031 125.867188 554.175781 123.074219 553.332031 122.359375 C 553.332031 122.359375 554.851562 122.402344 554.894531 124.980469 C 554.9375 127.554688 556.542969 129.710938 557.261719 128.0625 C 557.261719 128.0625 558.699219 129.671875 557.261719 130.851562 C 555.828125 132.035156 556.882812 133.515625 558.105469 134.191406 C 559.332031 134.867188 557.386719 135.542969 557.808594 137.65625 C 558.234375 139.769531 555.867188 141.207031 555.867188 143.488281 C 555.867188 145.769531 556.753906 154.390625 552.445312 160.222656 C 548.136719 166.054688 543.148438 170.742188 543.316406 173.660156 C 543.484375 176.574219 544.417969 183.757812 545.050781 185.109375 C 545.683594 186.460938 544.164062 187.179688 546.105469 187.5625 C 548.050781 187.941406 549.109375 188.828125 549.359375 189.507812 C 549.613281 190.179688 550.542969 190.390625 551.515625 190.519531 C 552.488281 190.644531 561.191406 195.464844 563.730469 203.519531 C 566.261719 211.578125 572.121094 230.003906 568.742188 251.863281 C 565.359375 273.722656 558.824219 288.824219 558.601562 296.484375 C 558.375 304.148438 558.714844 308.429688 559.726562 312.597656 C 560.742188 316.769531 564.234375 325.445312 563.785156 327.359375 C 563.335938 329.277344 561.753906 327.925781 561.417969 330.742188 C 561.078125 333.558594 561.191406 335.023438 561.527344 336.375 C 561.867188 337.726562 565.246094 348.011719 562.375 355.957031 C 559.503906 363.898438 557.132812 365.589844 556.292969 367.195312 C 555.445312 368.800781 553.246094 372.6875 553.921875 374.378906 C 554.597656 376.070312 555.445312 380.296875 555.699219 381.394531 C 555.953125 382.492188 560.011719 395.507812 561.191406 404.042969 C 562.375 412.578125 562.96875 414.609375 563.050781 415.960938 C 563.136719 417.3125 562.882812 418.15625 562.882812 418.15625 C 562.882812 418.15625 562.375 418.917969 562.714844 419.679688 C 563.050781 420.4375 564.65625 427.117188 566.601562 432.269531 C 568.542969 437.425781 567.953125 439.117188 574.039062 445.117188 C 580.121094 451.117188 590.265625 461.851562 595.757812 476.300781 C 601.25 490.753906 607.167969 506.050781 613.503906 515.261719 C 619.84375 524.476562 625.507812 531.742188 625.507812 531.742188 C 625.507812 531.742188 627.957031 530.054688 629.734375 532.167969 C 631.507812 534.28125 636.238281 541.800781 636.664062 542.898438 C 637.085938 544 638.523438 546.195312 639.449219 546.871094 C 640.382812 547.546875 643.761719 550.421875 641.734375 553.464844 C 639.703125 556.507812 634.042969 558.871094 625.507812 561.410156 C 616.96875 563.941406 612.660156 566.480469 610.71875 567.410156 C 608.773438 568.335938 596.605469 577.125 583.585938 575.691406 C 570.574219 574.253906 567.699219 569.945312 568.039062 566.648438 C 568.375 563.351562 571.417969 563.011719 576.234375 561.832031 C 581.054688 560.648438 585.195312 561.578125 589.082031 556.253906 C 592.96875 550.929688 596.859375 547.125 597.617188 545.433594 C 598.375 543.746094 597.953125 541.886719 597.617188 542.054688 C 597.28125 542.222656 596.519531 545.097656 596.011719 545.519531 C 595.503906 545.941406 595.25 544 595.503906 543.660156 C 595.757812 543.320312 597.363281 540.363281 597.363281 539.773438 C 597.363281 539.179688 594.152344 534.871094 596.179688 534.195312 C 598.207031 533.519531 598.546875 532.84375 598.292969 532.589844 C 598.039062 532.335938 584.515625 510.191406 579.953125 505.460938 C 575.390625 500.726562 565.417969 486.273438 561.953125 480.105469 C 558.488281 473.9375 552.402344 463.792969 550.121094 461.597656 C 547.839844 459.398438 544.628906 455.429688 542.511719 453.652344 C 540.402344 451.878906 536.429688 447.398438 535.328125 442.074219 C 534.230469 436.75 533.554688 435.3125 532.117188 432.863281 C 530.679688 430.410156 528.316406 424.664062 528.316406 424.664062 C 528.316406 424.664062 522.316406 427.03125 522.230469 425.761719 C 522.148438 424.496094 521.894531 422.214844 521.46875 421.03125 C 521.046875 419.847656 520.878906 417.988281 520.457031 416.636719 C 520.03125 415.28125 519.019531 412.410156 519.019531 412.410156 C 519.019531 412.410156 517.160156 416.636719 516.398438 418.664062 C 515.636719 420.691406 516.652344 422.636719 512.679688 422.46875 C 508.710938 422.296875 506.679688 420.609375 506.679688 420.609375 C 506.679688 420.609375 503.554688 425.257812 501.691406 428.128906 C 499.835938 431.003906 497.804688 431.171875 498.058594 442.074219 C 498.3125 452.976562 497.890625 468.867188 491.804688 480.613281 C 485.722656 492.359375 477.691406 507.910156 474.230469 518.050781 C 470.765625 528.195312 468.140625 536.222656 468.140625 536.222656 C 468.140625 536.222656 469.578125 535.800781 469.917969 537.492188 C 470.257812 539.179688 469.832031 541.632812 469.75 544.082031 C 469.664062 546.535156 470 553.632812 470.171875 554.984375 C 470.339844 556.335938 472.875 560.476562 463.746094 561.832031 C 454.621094 563.183594 444.648438 557.605469 441.605469 555.238281 C 438.5625 552.871094 435.097656 551.433594 428.167969 550 C 421.238281 548.5625 407.714844 540.109375 404.925781 535.800781 C 402.136719 531.488281 401.714844 522.109375 407.125 522.871094 C 412.53125 523.628906 419.800781 525.40625 423.433594 526.417969 C 427.070312 527.433594 434.589844 527.941406 434.929688 527.433594 C 435.265625 526.925781 433.828125 526.082031 434.421875 524.8125 C 435.011719 523.546875 437.546875 520.503906 437.292969 522.109375 C 437.042969 523.714844 435.265625 524.984375 436.195312 525.488281 C 437.125 525.996094 439.660156 525.996094 440.507812 525.660156 C 441.351562 525.320312 440.929688 524.390625 442.703125 522.699219 C 444.476562 521.011719 445.664062 519.320312 447.015625 519.234375 C 448.367188 519.152344 449.042969 519.660156 449.804688 518.558594 C 450.5625 517.460938 457.152344 502.839844 459.4375 491.429688 C 461.71875 480.023438 464.761719 463.035156 467.550781 456.441406 C 470.339844 449.851562 471.269531 444.527344 470.847656 437.765625 C 470.425781 431.003906 468.902344 423.058594 470.59375 418.917969 C 472.28125 414.777344 473.382812 414.355469 474.566406 409.28125 C 475.746094 404.210938 477.355469 402.269531 477.355469 402.269531 C 477.355469 402.269531 476.679688 401.253906 477.015625 400.410156 C 477.355469 399.5625 478.453125 397.789062 479.550781 395.339844 C 480.652344 392.886719 486.226562 377.84375 486.398438 376.746094 C 486.566406 375.648438 489.777344 371.167969 489.695312 370.238281 C 489.609375 369.308594 489.695312 366.859375 491.042969 363.644531 C 492.398438 360.433594 494.003906 357.308594 494.761719 355.449219 C 495.523438 353.589844 496.625 350.125 498.652344 346.320312 C 500.679688 342.515625 503.386719 338.207031 502.707031 336.9375 C 502.03125 335.671875 501.101562 336.261719 502.371094 333.726562 C 503.636719 331.191406 505.074219 328.65625 504.820312 327.8125 C 504.566406 326.964844 505.074219 323.164062 505.664062 321.980469 C 506.257812 320.796875 505.917969 317.839844 505.917969 317.839844 C 505.917969 317.839844 492.652344 331.53125 488.003906 335.417969 C 483.355469 339.304688 476.171875 346.742188 475.917969 348.773438 C 475.664062 350.800781 473.382812 356.460938 470.847656 359.417969 C 468.308594 362.378906 464.847656 365.390625 464.847656 367.644531 C 464.847656 369.898438 464.335938 369.84375 465.015625 370.238281 C 465.691406 370.632812 466.085938 371.984375 465.070312 373 C 464.058594 374.011719 462.367188 373.730469 462.367188 373.5625 C 462.367188 373.394531 460.054688 374.519531 458.3125 373.898438 C 456.5625 373.28125 457.238281 373.507812 455.550781 373.957031 C 453.859375 374.40625 450.875 372.546875 450.199219 371.195312 C 449.519531 369.84375 449.351562 368.828125 449.464844 368.320312 C 449.578125 367.816406 447.210938 367.082031 446.648438 366.347656 C 446.085938 365.617188 444.789062 364.714844 446.195312 361.617188 C 447.605469 358.519531 448.28125 353.730469 450.761719 351.644531 C 453.238281 349.558594 458.421875 345.335938 459.550781 344.09375 C 460.675781 342.855469 467.382812 334.910156 469.917969 331.925781 C 472.453125 328.9375 479.382812 320.035156 485.695312 309.726562 C 492.003906 299.414062 497.917969 290.230469 500.90625 286.683594 C 503.890625 283.132812 506.878906 281.214844 507.894531 275.976562 C 508.90625 270.738281 509.863281 264.875 510.539062 263.019531 C 511.214844 261.15625 510.257812 259.355469 510.089844 254.90625 C 509.917969 250.453125 507.160156 241.722656 509.074219 232.933594 C 510.992188 224.140625 515.949219 214.957031 517.355469 213.097656 C 518.765625 211.242188 520.230469 209.097656 521.019531 207.183594 C 521.808594 205.265625 521.867188 204.253906 522.371094 204.027344 C 522.878906 203.804688 522.910156 202.902344 522.910156 202.902344 " fill-opacity="1" fill-rule="nonzero"/></g><path fill="#70cbff" d="M 562.035156 207.636719 C 562.035156 207.636719 550.792969 195.382812 546.316406 193.6875 C 541.835938 192 535.074219 191.242188 528.734375 198 C 522.398438 204.761719 514.453125 216.003906 513.523438 224.707031 C 512.59375 233.410156 513.863281 239.664062 514.371094 241.019531 C 514.878906 242.371094 515.214844 242.453125 515.300781 241.863281 C 515.382812 241.273438 515.46875 238.398438 515.382812 237.386719 C 515.300781 236.367188 513.945312 222.171875 517.75 215.324219 C 521.554688 208.480469 528.398438 198 540.738281 199.351562 C 553.074219 200.707031 554.09375 205.945312 556.371094 207.886719 C 558.652344 209.832031 562.882812 211.691406 562.882812 212.535156 C 562.882812 213.382812 562.371094 216.847656 562.121094 219.46875 C 561.867188 222.089844 562.625 229.015625 562.882812 231.890625 C 563.136719 234.765625 560.769531 244.230469 560.347656 249.046875 C 559.921875 253.863281 559.246094 265.191406 559.582031 268.90625 C 559.921875 272.625 557.304688 278.121094 556.792969 280.910156 C 556.289062 283.699219 553.5 288.851562 553.160156 289.1875 C 552.824219 289.53125 548.597656 289.953125 548.429688 289.1875 C 548.261719 288.429688 547.582031 281.585938 543.949219 276.679688 C 540.316406 271.78125 534.90625 265.78125 534.90625 265.78125 L 532.285156 274.316406 C 532.285156 274.316406 538.792969 286.148438 539.894531 288.9375 C 540.992188 291.726562 541.414062 292.234375 541.921875 294.007812 C 542.429688 295.78125 544.117188 300.851562 544.457031 303.558594 C 544.796875 306.261719 546.824219 310.320312 547.839844 313.53125 C 548.851562 316.742188 553.5 323.671875 555.273438 325.53125 C 557.046875 327.390625 559.753906 332.039062 564.488281 334.234375 C 569.21875 336.433594 575.136719 334.488281 576.570312 333.054688 C 578.007812 331.617188 582.65625 327.898438 583.246094 327.136719 C 583.839844 326.375 585.109375 325.023438 585.953125 325.109375 C 586.796875 325.191406 591.785156 325.191406 593.726562 321.472656 C 595.671875 317.753906 600.238281 302.882812 601.925781 291.640625 C 603.617188 280.402344 604.460938 274.65625 604.460938 272.964844 C 604.460938 271.273438 604.292969 267.722656 602.941406 267.386719 C 601.585938 267.046875 599.726562 269.160156 599.21875 267.554688 C 598.714844 265.949219 596.855469 262.0625 595.757812 257.074219 C 594.65625 252.089844 592.289062 237.386719 588.910156 231.804688 C 585.53125 226.226562 583.332031 223.183594 582.066406 221.664062 C 580.796875 220.144531 580.035156 220.480469 576.742188 217.269531 C 573.445312 214.058594 573.277344 212.027344 570.65625 210.425781 C 568.035156 208.816406 568.035156 207.550781 567.613281 205.859375 C 567.191406 204.171875 562.148438 197.664062 561.191406 196.589844 C 560.234375 195.523438 557.867188 192.648438 556.851562 192.085938 C 555.835938 191.523438 553.066406 190.726562 552.703125 190.789062 C 552.339844 190.847656 551.445312 190.789062 552.230469 192.367188 C 553.019531 193.941406 555.726562 196.816406 557.753906 198.675781 C 559.78125 200.535156 561.585938 203.015625 561.640625 204.199219 C 561.695312 205.378906 562.992188 207.296875 562.035156 207.636719 " fill-opacity="1" fill-rule="nonzero"/><g clip-path="url(#b3b282d759)"><path fill="#70cbff" d="M 257.382812 219.261719 C 257.382812 219.261719 255.179688 212.085938 257.824219 206.925781 C 260.46875 201.761719 265.316406 196.851562 266.195312 196.160156 C 267.078125 195.464844 270.351562 195.152344 268.589844 190.996094 C 266.828125 186.839844 263.617188 179.097656 263.488281 177.839844 C 263.363281 176.578125 262.355469 175.761719 262.355469 175.761719 C 262.355469 175.761719 254.046875 170.03125 253.101562 163.988281 C 252.15625 157.945312 251.78125 156.121094 251.71875 155.113281 C 251.652344 154.105469 250.648438 152.40625 250.835938 151.148438 C 251.023438 149.886719 250.789062 148.816406 250.8125 147.6875 C 250.835938 146.550781 250.394531 145.105469 250.332031 144.535156 C 250.269531 143.96875 250.394531 140.066406 250.332031 139.1875 C 250.269531 138.304688 250.800781 136.039062 250.3125 136.039062 C 249.828125 136.039062 242.527344 136.355469 243.28125 133.710938 C 244.035156 131.066406 251.589844 127.789062 252.15625 127.539062 C 252.726562 127.285156 253.417969 124.769531 253.355469 123.570312 C 253.292969 122.378906 253.667969 117.78125 259.144531 114.949219 C 264.621094 112.113281 266.324219 111.988281 268.148438 111.421875 C 269.972656 110.855469 277.402344 109.914062 278.09375 110.605469 C 278.789062 111.296875 281.558594 112.429688 282.375 112.683594 C 283.195312 112.933594 285.585938 114.757812 286.214844 115.515625 C 286.847656 116.269531 293.015625 121.933594 294.085938 124.640625 C 295.15625 127.351562 296.097656 128.921875 295.910156 131.253906 C 295.722656 133.582031 296.226562 136.480469 296.414062 137.609375 C 296.605469 138.742188 295.53125 141.957031 295.34375 142.332031 C 295.15625 142.710938 294.652344 144.726562 294.839844 145.042969 C 295.03125 145.355469 297.925781 146.425781 297.863281 148.753906 C 297.800781 151.082031 296.476562 152.910156 295.660156 154.546875 C 294.839844 156.183594 293.457031 157.570312 293.394531 157.820312 C 293.328125 158.070312 293.203125 158.324219 293.015625 160.90625 C 292.828125 163.488281 291.125 168.582031 292.070312 170.285156 C 293.015625 171.984375 295.910156 174.691406 297.484375 175.132812 C 299.058594 175.570312 301.449219 177.714844 301.828125 177.777344 C 302.207031 177.839844 306.992188 178.40625 307.746094 179.351562 C 308.503906 180.296875 310.074219 181.300781 310.578125 181.425781 C 311.082031 181.554688 320.714844 184.578125 323.988281 187.09375 C 327.261719 189.609375 335.699219 198.992188 338.46875 209.945312 C 341.238281 220.898438 340.609375 245.828125 339.601562 261.191406 C 338.59375 276.550781 341.617188 314.449219 342.121094 318.605469 C 342.625 322.761719 345.109375 333.273438 345.394531 334.691406 C 345.675781 336.105469 346.621094 337.144531 346.148438 337.429688 C 345.675781 337.710938 345.203125 338.277344 345.203125 339.316406 C 345.203125 340.355469 347.375 347.4375 345.300781 354.332031 C 343.222656 361.226562 341.144531 363.492188 341.238281 366.417969 C 341.332031 369.34375 340.859375 366.703125 343.125 374.917969 C 345.394531 383.132812 345.746094 393.144531 346.277344 397.015625 C 346.808594 400.886719 347.847656 411.746094 348.507812 419.300781 C 349.171875 426.855469 350.585938 431.105469 351.4375 436.769531 C 352.285156 442.4375 350.492188 442.8125 352.003906 446.402344 C 353.515625 449.992188 354.835938 450.179688 354.457031 450.367188 C 354.082031 450.558594 354.082031 450.558594 354.082031 450.558594 C 354.082031 450.558594 365.222656 464.628906 366.921875 480.019531 C 368.625 495.414062 368.625 510.332031 371.832031 526.195312 C 375.042969 542.0625 375.894531 544.609375 377.214844 546.78125 C 378.539062 548.953125 379.480469 552.355469 380.332031 552.730469 C 381.183594 553.109375 382.316406 554.621094 382.789062 557.359375 C 383.257812 560.097656 384.394531 567.558594 384.296875 570.105469 C 384.203125 572.65625 380.050781 576.433594 369.851562 575.773438 C 359.652344 575.113281 350.304688 571.808594 340.011719 572.65625 C 329.71875 573.507812 312.625 571.050781 310.925781 569.824219 C 309.226562 568.597656 304.882812 559.53125 311.210938 558.679688 C 317.535156 557.832031 324.523438 558.964844 326.789062 556.886719 C 329.054688 554.808594 339.632812 552.636719 340.765625 551.691406 C 341.898438 550.75 346.621094 546.78125 345.769531 547.253906 C 344.921875 547.726562 342.75 549.617188 343.316406 547.820312 C 343.882812 546.027344 345.203125 545.273438 345.582031 545.273438 C 345.960938 545.273438 347.847656 545.742188 348.886719 544.707031 C 349.925781 543.664062 353.609375 541.210938 352.476562 532.808594 C 351.34375 524.402344 346.054688 509.292969 340.292969 496.921875 C 334.53125 484.550781 330.851562 475.488281 329.621094 469.539062 C 328.394531 463.589844 325.5625 458.488281 325.5625 458.488281 C 325.5625 458.488281 322.824219 459.339844 322.164062 459.433594 C 321.5 459.527344 318.953125 459.90625 317.820312 456.976562 C 316.6875 454.050781 307.902344 438.46875 306.203125 430.820312 C 304.503906 423.171875 302.332031 416.277344 301.765625 414.578125 C 301.199219 412.878906 301.859375 405.042969 299.878906 408.722656 C 297.894531 412.40625 292.984375 418.734375 291.757812 421.945312 C 290.527344 425.15625 286.847656 428.835938 287.035156 432.804688 C 287.222656 436.769531 287.035156 441.398438 285.808594 447.535156 C 284.578125 453.671875 284.484375 456.601562 282.5 456.601562 C 280.519531 456.601562 275.984375 455.183594 273.058594 454.804688 C 270.132812 454.429688 261.539062 450.367188 261.539062 451.597656 C 261.539062 452.824219 258.988281 470.671875 255.496094 480.871094 C 252 491.066406 248.695312 496.261719 244.539062 502.398438 C 240.386719 508.539062 233.019531 523.457031 230.847656 529.3125 C 228.675781 535.167969 225.464844 543.855469 225.464844 545.460938 C 225.464844 547.066406 225.9375 547.160156 226.316406 547.914062 C 226.691406 548.671875 228.109375 550.183594 226.785156 554.054688 C 225.464844 557.925781 225.558594 566.425781 221.6875 567.273438 C 217.816406 568.125 204.785156 565.761719 199.214844 564.347656 C 193.640625 562.929688 190.527344 560.851562 185.898438 559.910156 C 181.273438 558.964844 163.707031 556.980469 154.074219 551.789062 C 144.445312 546.59375 142.082031 537.8125 152.46875 538.1875 C 162.855469 538.566406 162.667969 538 170.980469 538.851562 C 179.289062 539.699219 182.972656 538.660156 185.710938 538 C 188.449219 537.339844 196.191406 537.054688 194.679688 535.921875 C 193.167969 534.789062 191.375 535.355469 191.28125 532.808594 C 191.1875 530.257812 192.414062 527.519531 192.980469 529.972656 C 193.546875 532.429688 194.492188 533.375 194.773438 533.375 C 195.058594 533.375 194.964844 534.128906 196.851562 533.183594 C 198.742188 532.242188 199.78125 531.863281 201.101562 531.863281 C 202.421875 531.863281 202.894531 531.671875 203.460938 530.917969 C 204.03125 530.164062 212.71875 520.53125 215.550781 507.027344 C 218.382812 493.523438 222.726562 470.011719 226.316406 460.945312 C 229.902344 451.878906 231.507812 449.519531 231.601562 448.007812 C 231.699219 446.496094 231.792969 444.796875 231.792969 444.796875 C 231.792969 444.796875 227.542969 445.457031 228.296875 441.585938 C 229.054688 437.714844 230.660156 424.117188 233.304688 421.09375 C 235.949219 418.074219 237.648438 415.335938 237.457031 414.011719 C 237.269531 412.691406 236.796875 412.21875 237.742188 410.328125 C 238.6875 408.441406 238.78125 405.511719 240.195312 401.453125 C 241.613281 397.390625 242.558594 392.011719 242.746094 391.347656 C 242.933594 390.6875 242.273438 387.003906 242.652344 385.023438 C 243.03125 383.039062 240.761719 378.789062 241.425781 376.710938 C 242.085938 374.632812 242.652344 369.15625 242.179688 367.550781 C 241.707031 365.945312 242.085938 355.085938 243.5 352.820312 C 244.917969 350.554688 250.113281 343.398438 250.394531 343.105469 C 250.679688 342.808594 254.738281 338.089844 254.738281 338.089844 C 254.738281 338.089844 255.871094 336.199219 256.4375 334.125 C 257.007812 332.046875 259.273438 328.835938 258.703125 325.152344 C 258.136719 321.46875 260.214844 305.414062 261.820312 300.976562 C 263.425781 296.539062 269.09375 287.378906 267.675781 283.789062 C 266.257812 280.203125 263.050781 264.90625 262.386719 262.074219 C 261.726562 259.238281 258.800781 255.085938 257.667969 248.285156 C 256.53125 241.484375 253.226562 227.164062 257.382812 219.261719 " fill-opacity="1" fill-rule="nonzero"/></g><path fill="#70cbff" d="M 311.964844 209.757812 C 311.492188 209.570312 299.78125 200.785156 290.433594 198.523438 C 281.085938 196.253906 276.574219 192.601562 268.429688 197.765625 C 260.289062 202.929688 257.425781 207.808594 257.425781 207.808594 C 257.425781 207.808594 260.152344 199.851562 264.558594 196.917969 C 268.964844 193.976562 275.984375 187.660156 283.917969 188.226562 C 291.851562 188.792969 298.367188 193.230469 303.464844 195.402344 C 308.566406 197.578125 313.476562 200.410156 314.324219 200.503906 C 315.175781 200.597656 318.667969 202.300781 319.613281 200.316406 C 320.558594 198.332031 319.992188 197.671875 318.480469 193.988281 C 316.96875 190.304688 314.796875 187.191406 312.90625 185.019531 C 311.019531 182.847656 308.941406 180.671875 311.207031 180.769531 C 313.476562 180.863281 322.066406 183.414062 325.089844 189.550781 C 328.113281 195.6875 330.28125 200.691406 330.472656 201.257812 C 330.660156 201.824219 328.679688 200.785156 331.417969 202.109375 C 334.15625 203.429688 351.4375 209.097656 354.644531 211.929688 C 357.859375 214.761719 363.808594 226 363.808594 231.382812 C 363.808594 236.765625 362.957031 235.726562 364.5625 239.503906 C 366.167969 243.28125 368.527344 245.832031 369.851562 246.964844 C 371.171875 248.097656 375.609375 255.933594 375.707031 258.292969 C 375.800781 260.65625 376.648438 292.289062 376.367188 295.21875 C 376.082031 298.144531 375.421875 303.53125 374.855469 306.929688 C 374.289062 310.328125 374.289062 309.949219 375.328125 313.160156 C 376.367188 316.371094 375.800781 317.21875 375.421875 316.464844 C 375.042969 315.710938 373.816406 312.214844 373.722656 311.933594 C 373.628906 311.648438 373.4375 309.195312 372.496094 312.214844 C 371.550781 315.238281 368.054688 318.917969 366.546875 319.296875 C 365.035156 319.675781 348.886719 323.359375 341.617188 322.414062 C 334.34375 321.46875 324.902344 319.863281 320.558594 318.449219 C 316.214844 317.03125 311.871094 314.578125 308.660156 310.609375 C 305.449219 306.644531 303.277344 302.015625 302.617188 301.453125 C 301.953125 300.882812 300.917969 300.410156 301.765625 304 C 302.617188 307.585938 305.351562 313.066406 304.410156 315.332031 C 303.464844 317.597656 297.136719 317.21875 297.515625 314.484375 C 297.894531 311.742188 299.121094 310.988281 299.308594 308.25 C 299.5 305.511719 299.78125 304.945312 299.59375 304.09375 C 299.40625 303.246094 299.972656 300.410156 299.972656 299.65625 C 299.972656 298.902344 302.898438 289.457031 303.277344 287.570312 C 303.65625 285.679688 303.75 280.578125 303.75 278.878906 C 303.75 277.179688 306.488281 258.957031 309.226562 250.269531 C 311.964844 241.582031 316.308594 234.3125 312.8125 224.488281 C 309.320312 214.667969 311.113281 212.027344 311.207031 211.648438 C 311.304688 211.269531 311.964844 209.757812 311.964844 209.757812 " fill-opacity="1" fill-rule="nonzero"/></svg>