<svg xmlns="http://www.w3.org/2000/svg" xmlns:xlink="http://www.w3.org/1999/xlink" width="500" zoomAndPan="magnify" viewBox="0 0 375 374.999991" height="500" preserveAspectRatio="xMidYMid meet" version="1.0"><defs><clipPath id="6f87eb94c5"><path d="M 119 101 L 274 101 L 274 219 L 119 219 Z M 119 101 " clip-rule="nonzero"/></clipPath><clipPath id="20d68f50f4"><path d="M 238.324219 245.234375 L 91.839844 175.652344 L 127.25 101.101562 L 273.738281 170.679688 Z M 238.324219 245.234375 " clip-rule="nonzero"/></clipPath><clipPath id="318ba771ab"><path d="M 127.496094 101.21875 C 108.207031 141.824219 125.375 191.585938 165.203125 210.503906 C 205.03125 229.421875 254.449219 211.289062 273.738281 170.679688 Z M 127.496094 101.21875 " clip-rule="nonzero"/></clipPath><clipPath id="a3dfcda213"><path d="M 0 0.0390625 L 154.839844 0.0390625 L 154.839844 118 L 0 118 Z M 0 0.0390625 " clip-rule="nonzero"/></clipPath><clipPath id="04c385836d"><path d="M 119.324219 144.234375 L -27.160156 74.652344 L 8.25 0.101562 L 154.738281 69.679688 Z M 119.324219 144.234375 " clip-rule="nonzero"/></clipPath><clipPath id="6697abf51f"><path d="M 8.496094 0.21875 C -10.792969 40.824219 6.375 90.585938 46.203125 109.503906 C 86.03125 128.421875 135.449219 110.289062 154.738281 69.679688 Z M 8.496094 0.21875 " clip-rule="nonzero"/></clipPath><clipPath id="ee37e55da7"><rect x="0" width="155" y="0" height="118"/></clipPath><clipPath id="5281be75fb"><path d="M 124.664062 62.949219 L 202.703125 62.949219 L 202.703125 164.695312 L 124.664062 164.695312 Z M 124.664062 62.949219 " clip-rule="nonzero"/></clipPath><clipPath id="25bcccb13d"><path d="M 0.664062 0.949219 L 78.703125 0.949219 L 78.703125 102.695312 L 0.664062 102.695312 Z M 0.664062 0.949219 " clip-rule="nonzero"/></clipPath><clipPath id="8d3cf74683"><rect x="0" width="79" y="0" height="103"/></clipPath><clipPath id="acda0f8b78"><path d="M 161 133 L 244 133 L 244 196 L 161 196 Z M 161 133 " clip-rule="nonzero"/></clipPath><clipPath id="ffc958359a"><path d="M 174.65625 121.863281 L 253.265625 155.984375 L 230.867188 207.582031 L 152.261719 173.460938 Z M 174.65625 121.863281 " clip-rule="nonzero"/></clipPath><clipPath id="b749572190"><path d="M 213.902344 138.898438 C 192.226562 129.488281 169.644531 133.414062 163.460938 147.660156 C 157.273438 161.910156 169.828125 181.085938 191.503906 190.496094 C 213.175781 199.902344 235.761719 195.980469 241.945312 181.730469 C 248.132812 167.484375 235.574219 148.304688 213.902344 138.898438 Z M 213.902344 138.898438 " clip-rule="nonzero"/></clipPath><clipPath id="f5f895f8ba"><path d="M 0 0 L 83 0 L 83 63 L 0 63 Z M 0 0 " clip-rule="nonzero"/></clipPath><clipPath id="2145d5dbf5"><path d="M 13.65625 -11.136719 L 92.265625 22.984375 L 69.867188 74.582031 L -8.738281 40.460938 Z M 13.65625 -11.136719 " clip-rule="nonzero"/></clipPath><clipPath id="00353c7b67"><path d="M 52.902344 5.898438 C 31.226562 -3.511719 8.644531 0.414062 2.460938 14.660156 C -3.726562 28.910156 8.828125 48.085938 30.503906 57.496094 C 52.175781 66.902344 74.761719 62.980469 80.945312 48.730469 C 87.132812 34.484375 74.574219 15.304688 52.902344 5.898438 Z M 52.902344 5.898438 " clip-rule="nonzero"/></clipPath><clipPath id="24f346119d"><rect x="0" width="83" y="0" height="63"/></clipPath><clipPath id="b63955c793"><path d="M 228 158 L 306 158 L 306 205 L 228 205 Z M 228 158 " clip-rule="nonzero"/></clipPath><clipPath id="beb0af033c"><path d="M 233.347656 155.960938 L 307.890625 192.738281 L 300.753906 207.207031 L 226.210938 170.429688 Z M 233.347656 155.960938 " clip-rule="nonzero"/></clipPath><clipPath id="e5e067372c"><path d="M 240.582031 159.53125 L 300.65625 189.167969 C 302.574219 190.113281 304.039062 191.785156 304.726562 193.808594 C 305.414062 195.835938 305.265625 198.050781 304.320312 199.96875 C 303.375 201.890625 301.703125 203.351562 299.679688 204.039062 C 297.652344 204.726562 295.4375 204.582031 293.519531 203.636719 L 233.445312 174 C 231.527344 173.050781 230.0625 171.382812 229.375 169.355469 C 228.6875 167.332031 228.832031 165.113281 229.78125 163.195312 C 230.726562 161.277344 232.394531 159.8125 234.421875 159.125 C 236.449219 158.4375 238.664062 158.585938 240.582031 159.53125 Z M 240.582031 159.53125 " clip-rule="nonzero"/></clipPath><clipPath id="824d9167a0"><path d="M 0.480469 0.398438 L 77.519531 0.398438 L 77.519531 46.960938 L 0.480469 46.960938 Z M 0.480469 0.398438 " clip-rule="nonzero"/></clipPath><clipPath id="4413c12040"><path d="M 5.347656 -2.039062 L 79.890625 34.738281 L 72.753906 49.207031 L -1.789062 12.429688 Z M 5.347656 -2.039062 " clip-rule="nonzero"/></clipPath><clipPath id="ad9781af17"><path d="M 12.582031 1.53125 L 72.65625 31.167969 C 74.574219 32.113281 76.039062 33.785156 76.726562 35.808594 C 77.414062 37.835938 77.265625 40.050781 76.320312 41.96875 C 75.375 43.890625 73.703125 45.351562 71.679688 46.039062 C 69.652344 46.726562 67.4375 46.582031 65.519531 45.636719 L 5.445312 16 C 3.527344 15.050781 2.0625 13.382812 1.375 11.355469 C 0.6875 9.332031 0.832031 7.113281 1.78125 5.195312 C 2.726562 3.277344 4.394531 1.8125 6.421875 1.125 C 8.449219 0.4375 10.664062 0.585938 12.582031 1.53125 Z M 12.582031 1.53125 " clip-rule="nonzero"/></clipPath><clipPath id="272a2e6459"><rect x="0" width="78" y="0" height="47"/></clipPath><clipPath id="e2399883d5"><path d="M 210 163 L 288 163 L 288 212 L 210 212 Z M 210 163 " clip-rule="nonzero"/></clipPath><clipPath id="a5899907b9"><path d="M 216.171875 160.128906 L 290.753906 196.921875 L 281.796875 215.070312 L 207.21875 178.277344 Z M 216.171875 160.128906 " clip-rule="nonzero"/></clipPath><clipPath id="aa574627bc"><path d="M 225.246094 164.605469 L 281.636719 192.425781 C 286.648438 194.898438 288.707031 200.964844 286.234375 205.976562 C 283.761719 210.988281 277.695312 213.046875 272.683594 210.574219 L 216.292969 182.753906 C 211.28125 180.28125 209.222656 174.214844 211.695312 169.203125 C 214.167969 164.191406 220.234375 162.132812 225.246094 164.605469 Z M 225.246094 164.605469 " clip-rule="nonzero"/></clipPath><clipPath id="bbe490def1"><path d="M 0 0 L 78 0 L 78 49 L 0 49 Z M 0 0 " clip-rule="nonzero"/></clipPath><clipPath id="bf5188dc93"><path d="M 6.171875 -2.871094 L 80.753906 33.921875 L 71.796875 52.070312 L -2.78125 15.277344 Z M 6.171875 -2.871094 " clip-rule="nonzero"/></clipPath><clipPath id="6ce140a499"><path d="M 15.246094 1.605469 L 71.636719 29.425781 C 76.648438 31.898438 78.707031 37.964844 76.234375 42.976562 C 73.761719 47.988281 67.695312 50.046875 62.683594 47.574219 L 6.292969 19.753906 C 1.28125 17.28125 -0.777344 11.214844 1.695312 6.203125 C 4.167969 1.191406 10.234375 -0.867188 15.246094 1.605469 Z M 15.246094 1.605469 " clip-rule="nonzero"/></clipPath><clipPath id="35ad35b7ad"><rect x="0" width="78" y="0" height="49"/></clipPath><clipPath id="6cda5fb00e"><path d="M 182.914062 62.949219 L 266.058594 62.949219 L 266.058594 70.800781 L 182.914062 70.800781 Z M 182.914062 62.949219 " clip-rule="nonzero"/></clipPath><clipPath id="922334e668"><path d="M 186.839844 62.949219 L 262.105469 62.949219 C 264.273438 62.949219 266.03125 64.707031 266.03125 66.875 C 266.03125 69.042969 264.273438 70.800781 262.105469 70.800781 L 186.839844 70.800781 C 184.671875 70.800781 182.914062 69.042969 182.914062 66.875 C 182.914062 64.707031 184.671875 62.949219 186.839844 62.949219 Z M 186.839844 62.949219 " clip-rule="nonzero"/></clipPath><clipPath id="4438417272"><path d="M 0.914062 0.949219 L 84.058594 0.949219 L 84.058594 8.800781 L 0.914062 8.800781 Z M 0.914062 0.949219 " clip-rule="nonzero"/></clipPath><clipPath id="18e2c7b2c5"><path d="M 4.839844 0.949219 L 80.105469 0.949219 C 82.273438 0.949219 84.03125 2.707031 84.03125 4.875 C 84.03125 7.042969 82.273438 8.800781 80.105469 8.800781 L 4.839844 8.800781 C 2.671875 8.800781 0.914062 7.042969 0.914062 4.875 C 0.914062 2.707031 2.671875 0.949219 4.839844 0.949219 Z M 4.839844 0.949219 " clip-rule="nonzero"/></clipPath><clipPath id="d1283118e4"><rect x="0" width="85" y="0" height="9"/></clipPath><clipPath id="7db1ea8ac5"><path d="M 182.914062 68.671875 L 240.242188 68.671875 L 240.242188 75.898438 L 182.914062 75.898438 Z M 182.914062 68.671875 " clip-rule="nonzero"/></clipPath><clipPath id="29ceee0021"><path d="M 186.527344 68.671875 L 236.621094 68.671875 C 238.613281 68.671875 240.230469 70.289062 240.230469 72.285156 C 240.230469 74.28125 238.613281 75.898438 236.621094 75.898438 L 186.527344 75.898438 C 184.53125 75.898438 182.914062 74.28125 182.914062 72.285156 C 182.914062 70.289062 184.53125 68.671875 186.527344 68.671875 Z M 186.527344 68.671875 " clip-rule="nonzero"/></clipPath><clipPath id="2356ccb3f8"><path d="M 0.914062 0.671875 L 58.238281 0.671875 L 58.238281 7.898438 L 0.914062 7.898438 Z M 0.914062 0.671875 " clip-rule="nonzero"/></clipPath><clipPath id="2733a9098d"><path d="M 4.527344 0.671875 L 54.621094 0.671875 C 56.613281 0.671875 58.230469 2.289062 58.230469 4.285156 C 58.230469 6.28125 56.613281 7.898438 54.621094 7.898438 L 4.527344 7.898438 C 2.53125 7.898438 0.914062 6.28125 0.914062 4.285156 C 0.914062 2.289062 2.53125 0.671875 4.527344 0.671875 Z M 4.527344 0.671875 " clip-rule="nonzero"/></clipPath><clipPath id="af7b46ee8c"><rect x="0" width="59" y="0" height="8"/></clipPath><clipPath id="5a186a17d8"><path d="M 182.914062 74.066406 L 227.683594 74.066406 L 227.683594 81.292969 L 182.914062 81.292969 Z M 182.914062 74.066406 " clip-rule="nonzero"/></clipPath><clipPath id="4e46df474d"><path d="M 186.527344 74.066406 L 224.046875 74.066406 C 226.042969 74.066406 227.660156 75.683594 227.660156 77.679688 C 227.660156 79.675781 226.042969 81.292969 224.046875 81.292969 L 186.527344 81.292969 C 184.53125 81.292969 182.914062 79.675781 182.914062 77.679688 C 182.914062 75.683594 184.53125 74.066406 186.527344 74.066406 Z M 186.527344 74.066406 " clip-rule="nonzero"/></clipPath><clipPath id="7a5c0f8ab7"><path d="M 0.914062 0.0664062 L 45.683594 0.0664062 L 45.683594 7.292969 L 0.914062 7.292969 Z M 0.914062 0.0664062 " clip-rule="nonzero"/></clipPath><clipPath id="69650936cf"><path d="M 4.527344 0.0664062 L 42.046875 0.0664062 C 44.042969 0.0664062 45.660156 1.683594 45.660156 3.679688 C 45.660156 5.675781 44.042969 7.292969 42.046875 7.292969 L 4.527344 7.292969 C 2.53125 7.292969 0.914062 5.675781 0.914062 3.679688 C 0.914062 1.683594 2.53125 0.0664062 4.527344 0.0664062 Z M 4.527344 0.0664062 " clip-rule="nonzero"/></clipPath><clipPath id="0d6ff3453a"><rect x="0" width="46" y="0" height="8"/></clipPath><clipPath id="b483ab7b62"><path d="M 182.914062 79.820312 L 219.355469 79.820312 L 219.355469 87.046875 L 182.914062 87.046875 Z M 182.914062 79.820312 " clip-rule="nonzero"/></clipPath><clipPath id="0f5b88da76"><path d="M 186.527344 79.820312 L 215.738281 79.820312 C 217.734375 79.820312 219.351562 81.4375 219.351562 83.433594 C 219.351562 85.425781 217.734375 87.046875 215.738281 87.046875 L 186.527344 87.046875 C 184.53125 87.046875 182.914062 85.425781 182.914062 83.433594 C 182.914062 81.4375 184.53125 79.820312 186.527344 79.820312 Z M 186.527344 79.820312 " clip-rule="nonzero"/></clipPath><clipPath id="e5fe3e64b6"><path d="M 0.914062 0.820312 L 37.355469 0.820312 L 37.355469 8.046875 L 0.914062 8.046875 Z M 0.914062 0.820312 " clip-rule="nonzero"/></clipPath><clipPath id="5f91bfbb7a"><path d="M 4.527344 0.820312 L 33.738281 0.820312 C 35.734375 0.820312 37.351562 2.4375 37.351562 4.433594 C 37.351562 6.425781 35.734375 8.046875 33.738281 8.046875 L 4.527344 8.046875 C 2.53125 8.046875 0.914062 6.425781 0.914062 4.433594 C 0.914062 2.4375 2.53125 0.820312 4.527344 0.820312 Z M 4.527344 0.820312 " clip-rule="nonzero"/></clipPath><clipPath id="b32a5cdf40"><rect x="0" width="38" y="0" height="9"/></clipPath><clipPath id="df09c41467"><path d="M 127.941406 67.710938 L 146.574219 67.710938 L 146.574219 73.867188 L 127.941406 73.867188 Z M 127.941406 67.710938 " clip-rule="nonzero"/></clipPath><clipPath id="5f01f16de9"><path d="M 146.558594 73.867188 C 146.558594 70.527344 142.328125 67.734375 137.261719 67.734375 C 132.199219 67.734375 127.964844 70.527344 127.964844 73.867188 L 133.125 73.867188 C 133.125 72.382812 135.007812 71.140625 137.261719 71.140625 C 139.515625 71.140625 141.398438 72.382812 141.398438 73.867188 Z M 146.558594 73.867188 " clip-rule="nonzero"/></clipPath><clipPath id="bc4b8fa79f"><path d="M 0.941406 0.710938 L 19.574219 0.710938 L 19.574219 6.867188 L 0.941406 6.867188 Z M 0.941406 0.710938 " clip-rule="nonzero"/></clipPath><clipPath id="63bf01f31f"><path d="M 19.558594 6.867188 C 19.558594 3.527344 15.328125 0.734375 10.261719 0.734375 C 5.199219 0.734375 0.964844 3.527344 0.964844 6.867188 L 6.125 6.867188 C 6.125 5.382812 8.007812 4.140625 10.261719 4.140625 C 12.515625 4.140625 14.398438 5.382812 14.398438 6.867188 Z M 19.558594 6.867188 " clip-rule="nonzero"/></clipPath><clipPath id="6af5890e35"><rect x="0" width="20" y="0" height="7"/></clipPath><clipPath id="e27cdb11b9"><path d="M 83.695312 62.789062 L 124.664062 62.789062 L 124.664062 103.917969 L 83.695312 103.917969 Z M 83.695312 62.789062 " clip-rule="nonzero"/></clipPath><clipPath id="009c34dc78"><path d="M 83.695312 103.917969 C 83.695312 93.128906 88.0625 82.578125 95.691406 74.949219 C 103.320312 67.316406 113.871094 62.949219 124.664062 62.949219 L 124.664062 103.917969 Z M 83.695312 103.917969 " clip-rule="nonzero"/></clipPath><clipPath id="862864666f"><path d="M 0.695312 0.878906 L 41.664062 0.878906 L 41.664062 41.917969 L 0.695312 41.917969 Z M 0.695312 0.878906 " clip-rule="nonzero"/></clipPath><clipPath id="2fb3c196a6"><path d="M 0.695312 41.917969 C 0.695312 31.128906 5.0625 20.578125 12.691406 12.949219 C 20.320312 5.316406 30.871094 0.949219 41.664062 0.949219 L 41.664062 41.917969 Z M 0.695312 41.917969 " clip-rule="nonzero"/></clipPath><clipPath id="34c0d20e4d"><rect x="0" width="42" y="0" height="42"/></clipPath></defs><path stroke-linecap="butt" transform="matrix(0, -0.75, 0.75, 0, 181.495231, 274.413323)" fill="none" stroke-linejoin="miter" d="M -0.000986293 8.001151 L 135.092773 8.001151 " stroke="#000000" stroke-width="16" stroke-opacity="1" stroke-miterlimit="4"/><g clip-path="url(#6f87eb94c5)"><g clip-path="url(#20d68f50f4)"><g clip-path="url(#318ba771ab)"><g transform="matrix(1, 0, 0, 1, 119, 101)"><g clip-path="url(#ee37e55da7)"><g clip-path="url(#a3dfcda213)"><g clip-path="url(#04c385836d)"><g clip-path="url(#6697abf51f)"><path fill="#5ce1e6" d="M 119.324219 144.234375 L -26.871094 74.792969 L 8.542969 0.238281 L 154.738281 69.679688 Z M 119.324219 144.234375 " fill-opacity="1" fill-rule="nonzero"/></g></g></g></g></g></g></g></g><g clip-path="url(#5281be75fb)"><g transform="matrix(1, 0, 0, 1, 124, 62)"><g clip-path="url(#8d3cf74683)"><g clip-path="url(#25bcccb13d)"><path fill="#5ce1e6" d="M 0.664062 0.949219 L 78.703125 0.949219 L 78.703125 102.765625 L 0.664062 102.765625 Z M 0.664062 0.949219 " fill-opacity="1" fill-rule="nonzero"/></g></g></g></g><g clip-path="url(#acda0f8b78)"><g clip-path="url(#ffc958359a)"><g clip-path="url(#b749572190)"><g transform="matrix(1, 0, 0, 1, 161, 133)"><g clip-path="url(#24f346119d)"><g clip-path="url(#f5f895f8ba)"><g clip-path="url(#2145d5dbf5)"><g clip-path="url(#00353c7b67)"><path fill="#0cc0df" d="M 13.65625 -11.136719 L 92.0625 22.898438 L 69.664062 74.496094 L -8.738281 40.460938 Z M 13.65625 -11.136719 " fill-opacity="1" fill-rule="nonzero"/></g></g></g></g></g></g></g></g><g clip-path="url(#b63955c793)"><g clip-path="url(#beb0af033c)"><g clip-path="url(#e5e067372c)"><g transform="matrix(1, 0, 0, 1, 228, 158)"><g clip-path="url(#272a2e6459)"><g clip-path="url(#824d9167a0)"><g clip-path="url(#4413c12040)"><g clip-path="url(#ad9781af17)"><path fill="#0cc0df" d="M 5.347656 -2.039062 L 79.890625 34.738281 L 72.753906 49.207031 L -1.789062 12.429688 Z M 5.347656 -2.039062 " fill-opacity="1" fill-rule="nonzero"/></g></g></g></g></g></g></g></g><g clip-path="url(#e2399883d5)"><g clip-path="url(#a5899907b9)"><g clip-path="url(#aa574627bc)"><g transform="matrix(1, 0, 0, 1, 210, 163)"><g clip-path="url(#35ad35b7ad)"><g clip-path="url(#bbe490def1)"><g clip-path="url(#bf5188dc93)"><g clip-path="url(#6ce140a499)"><path fill="#0cc0df" d="M 6.171875 -2.871094 L 80.679688 33.886719 L 71.726562 52.035156 L -2.78125 15.277344 Z M 6.171875 -2.871094 " fill-opacity="1" fill-rule="nonzero"/></g></g></g></g></g></g></g></g><g clip-path="url(#6cda5fb00e)"><g clip-path="url(#922334e668)"><g transform="matrix(1, 0, 0, 1, 182, 62)"><g clip-path="url(#d1283118e4)"><g clip-path="url(#4438417272)"><g clip-path="url(#18e2c7b2c5)"><path fill="#0cc0df" d="M 0.914062 0.949219 L 84.027344 0.949219 L 84.027344 8.800781 L 0.914062 8.800781 Z M 0.914062 0.949219 " fill-opacity="1" fill-rule="nonzero"/></g></g></g></g></g></g><g clip-path="url(#7db1ea8ac5)"><g clip-path="url(#29ceee0021)"><g transform="matrix(1, 0, 0, 1, 182, 68)"><g clip-path="url(#af7b46ee8c)"><g clip-path="url(#2356ccb3f8)"><g clip-path="url(#2733a9098d)"><path fill="#0cc0df" d="M 0.914062 0.671875 L 58.242188 0.671875 L 58.242188 7.898438 L 0.914062 7.898438 Z M 0.914062 0.671875 " fill-opacity="1" fill-rule="nonzero"/></g></g></g></g></g></g><g clip-path="url(#5a186a17d8)"><g clip-path="url(#4e46df474d)"><g transform="matrix(1, 0, 0, 1, 182, 74)"><g clip-path="url(#0d6ff3453a)"><g clip-path="url(#7a5c0f8ab7)"><g clip-path="url(#69650936cf)"><path fill="#0cc0df" d="M 0.914062 0.0664062 L 45.65625 0.0664062 L 45.65625 7.292969 L 0.914062 7.292969 Z M 0.914062 0.0664062 " fill-opacity="1" fill-rule="nonzero"/></g></g></g></g></g></g><g clip-path="url(#b483ab7b62)"><g clip-path="url(#0f5b88da76)"><g transform="matrix(1, 0, 0, 1, 182, 79)"><g clip-path="url(#b32a5cdf40)"><g clip-path="url(#e5fe3e64b6)"><g clip-path="url(#5f91bfbb7a)"><path fill="#0cc0df" d="M 0.914062 0.820312 L 37.355469 0.820312 L 37.355469 8.046875 L 0.914062 8.046875 Z M 0.914062 0.820312 " fill-opacity="1" fill-rule="nonzero"/></g></g></g></g></g></g><g clip-path="url(#df09c41467)"><g clip-path="url(#5f01f16de9)"><g transform="matrix(1, 0, 0, 1, 127, 67)"><g clip-path="url(#6af5890e35)"><g clip-path="url(#bc4b8fa79f)"><g clip-path="url(#63bf01f31f)"><path fill="#0cc0df" d="M 0.964844 0.734375 L 19.550781 0.734375 L 19.550781 6.867188 L 0.964844 6.867188 Z M 0.964844 0.734375 " fill-opacity="1" fill-rule="nonzero"/></g></g></g></g></g></g><g clip-path="url(#e27cdb11b9)"><g clip-path="url(#009c34dc78)"><g transform="matrix(1, 0, 0, 1, 83, 62)"><g clip-path="url(#34c0d20e4d)"><g clip-path="url(#862864666f)"><g clip-path="url(#2fb3c196a6)"><path fill="#0cc0df" d="M 0.695312 0.949219 L 41.664062 0.949219 L 41.664062 41.917969 L 0.695312 41.917969 Z M 0.695312 0.949219 " fill-opacity="1" fill-rule="nonzero"/></g></g></g></g></g></g></svg>